<svg xmlns="http://www.w3.org/2000/svg" width="200" height="200" style="display:block"><path d="M102.6 47a9 9 0 0 0-5.6 2.1c-1.3 1.3-2.3 2.4-2.5 4.3v1.1l.1 1.2v1H78a6 6 0 0 0-3.2 3l-.4 1-2.7-.1h-1.1c-2.6 0-4.6-.1-6.9 1.3l-.6.6-.7.5a9 9 0 0 0-2.4 6.4v.9l.1 27v1.1H36.3c-1 0-1 0-1.3.4l.4 1.6H60v18.7c-3.3-1.3-4.8-2.2-8-2.2h-.8a20 20 0 0 0-9.9 3.4c-2.6 2-4.7 5-5.5 8.2v1a14 14 0 0 0-7.9 1.3 15 15 0 0 0-7.6 9.8 16 16 0 0 0 2.5 11.2q3.8 4.7 9.6 5.7h1.5l15.7.4 49.2.2 21.5.1h16.4c2.7 0 4.6-.5 6.7-2.3a8 8 0 0 0 2.2-5.9v-.9l-.1-3h-1.2l-.4-1.6H83c-.3-2-.3-2-.7-2.8l-.5-.7-1.1-1.6a14 14 0 0 0-11-4h-1v-2a17 17 0 0 0-.4-4.4c-.8-2.5-2.3-5.9-4.7-7.2l-.8-.3L63 82v-4.6l.1-6.1v-3c0-1.8 0-2.5 1.2-3.8 1.5-1 2.6-1 4.4-1h1.1l4.1-.2c.2 1.7.3 2.7 1.3 4.1 2.2 2.1 4.2 2.4 7.2 2.4h39.3c2.7.1 4.9 0 7.3-1.3q2-1.5 2.4-4l.2-1.2 2.4.1h1c2.3.1 4.2.2 6.1 1.5q1.2 1.4 1.4 3v4l.2 45.5v.8l.8-.8 1-.6c1.2-1.2 1.2-1.2 1.2-4.4V85.3l-.1-13.4v-4.1c0-1.6-.1-2.4-1-3.5l-.7-1-.7-.7c-2.4-2.2-2.4-2.2-8-2.2H132c-1-.1-1-.1-1.5-1.1l-.5-1a8 8 0 0 0-5.6-1.8h-1l-11 .2H111v-4.4a9 9 0 0 0-2.7-3.4 9 9 0 0 0-5.7-1.8m0 3 2 .3c2 1 3 2 4 4l.3 3.4v1h14.2c1.8 0 3 .2 4.4 1.3 1.2 1.3 1.4 2 1.3 3.8a5 5 0 0 1-2.4 2.8l-2 .1H79.8c-1.2-.1-1.8-.5-2.6-1.3a9 9 0 0 1-.4-4c.7-1 1.2-1.8 2.4-2.4h5.1l12.4-.4v-.9l.2-1.2v-1.2c.3-1.9 1.4-3 2.6-4.3q1.5-1 3.2-1M53 119.6a15 15 0 0 1 7.1 2.6 15 15 0 0 1 6.2 14l-.8.5a17 17 0 0 0-8 7.5v1.2l1.6.4.1-.8c.7-2.5 2.9-4.4 4.9-5.9q4.8-2.3 10-1a10 10 0 0 1 5.8 5.4c.4 1.1.4 1.1 1 2q1.4.4 2.8.3h.8l.6.6c1 .9 1.7.8 3 .8h14l19.3.1 21.2.1v3c0 1.4-.4 2.2-1.2 3.4-1.6 1.4-2.5 2-4.7 2h-25.2l-72.5-.1c-9.6 0-9.6 0-13.4-3.6-2.8-3-3.5-5.8-3.5-9.8.4-4 2.5-6.3 5.4-8.9 3-2.2 7.1-1.8 10.7-1.3l1 .2-.4-1.6-.8-.4c.5-3.4 1.6-5.5 4.3-7.6a15 15 0 0 1 10.7-3.1" style="fill:#9ba2a7;stroke-width:.397652"/><path d="M83.9 144.5h60l.4 1.6h1.2l.1 4c0 2.4-.6 3.9-2.2 5.8a10 10 0 0 1-6.9 2.3H95l-26.2-.1-.8-1.6c1.1-1.2 2-1 3.5-1h65.9c1.6-.3 2.5-.8 3.7-1.8 1-1.5 1.3-2.7 1.5-4.5v-1l.1-.9h-.8l-45.3.2h-6.9c-4 0-4 0-5.1-1.1-.7-1-.7-1-.7-1.9" style="fill:#81898f;stroke-width:.397652"/><path d="M142.3 67h.4l.4 50.5 1.6-1.6h.8V67.4h.4V86h25.9l.4 1.6c-.4.4-.4.4-1.5.4H146l.4 26.6 3.2-1.6a17 17 0 0 1 11.4 1.3q4.9 3.1 6.9 8.7v1.6l1.1-.1q4.5.1 7.8 3.3a12 12 0 0 1 3.2 8.8 12 12 0 0 1-4.2 7.8 12 12 0 0 1-7.7 2.5H146v4.3h-.4v-5.2h-1.2l-.4-1.6h1l20.3.2c3.5.1 6.4 0 9.3-2.2 1-.9 1-.9 1.6-2l.8-1q1.1-3.3 0-6.8c-1.6-2.8-3-4.3-6.1-5.4q-2.1-.5-4.2-.7c-.8-.8-.8-.8-1-2.3a12 12 0 0 0-4.7-7q-5-3.2-10.6-1.9c-3 1-5.1 2.3-6.8 5.3 0 .9 0 .9.4 1.6l.9.8.7.8c0 .9 0 .9-.4 1.5-1.8-.1-3-.9-4.4-1.9-1.6-1-3-1-4.7-.8a8 8 0 0 0-4.8 3.5 9 9 0 0 0 .4 6.8l-.4 2c-.7 0-.7 0-1.6-.4-1.6-2.5-1.6-5.5-1.2-8.4q1.6-3.8 5.6-5.5 1.9-.6 3.8-.5h1.1c1 0 1 0 2.2.5.8-1.3 1-2.3 1-3.8V104l.1-17.6z" style="fill:#c3c8cc;stroke-width:.397652"/><path d="M116 85.7a24 24 0 0 1 7.9 12.6 22 22 0 0 1-3.4 16.4c-3 4-7.2 7.5-12.2 8.6-7 .9-13.2.3-18.9-4a23 23 0 0 1-7.8-13.2l-.1-1.7V103a22 22 0 0 1 5-14.7 22 22 0 0 1 29.6-2.7m-29.1 5q-1.7 2.3-2.7 5l-.5 1a19 19 0 0 0-.4 5.2v1a19 19 0 0 0 5 13.2 20.4 20.4 0 0 0 29.4-.4q1.8-2.6 3-5.4l.5-.8c1.6-3.7 1.4-10.2.1-14a22 22 0 0 0-11.6-11.3 18 18 0 0 0-7-1.1h-1A20 20 0 0 0 87 90.7" style="fill:#858d92;stroke-width:.397652"/><path d="M63.6 168h67.6c1.2 0 1.2 0 2 .4l-.4 1.2H63.2Z" style="fill:#ecedf0;stroke-width:.397652"/><path d="M112.4 94.3c1 .1 1 .1 1.7 1 0 2.2-1.1 3.3-2.6 4.8l-2 2-2.4 2.9-.8 1-3.2 4-.5.7c-.9 1.1-1.5 1.6-2.8 2-1.6-.5-2.2-1-3.2-2.2q-1.6-1.8-3.4-3.2c-1-1-1-1-1.2-2.2.2-1.1.2-1.1.6-1.5.9-.2.9-.2 2 0q1.3 1 2.5 2.2l.7.6 1.6 1.6q2.1-1.7 3.8-3.8 2.4-3 4.9-5.8l.5-.7.6-.6 1.4-1.8c.7-.8.7-.8 1.8-1" style="fill:#838b90;stroke-width:.397652"/><path d="M43 46c.7 0 .7 0 1.5.3q.7 2 1.1 4c.6 1.4 1.1 1.9 2.5 2.8l2.1.5 1 .2h.9l-.4 1.7h-.8c-2.1.4-3.7.7-5.2 2.3q-1 1.7-1 3.5l-.2 1v.7l-1.6-.4-.2-1-.3-1.3-.3-1.3a4 4 0 0 0-1.6-2.3q-2.2-1-4.7-1.2v-1.6l.9-.3 1.2-.2L39 53q1.6-.4 2.7-1.5 1-2.6 1.2-5.6" style="fill:#8f969a;stroke-width:.397652"/><path d="M142 32.4h1.1l.3 1 .4 1.5.4 1.4c.6 1.3 1 2 2.1 2.9l2.3.7 1.2.3.9.2v1.1l-.9.2c-2.4.6-4 1-5.5 3-.4 1-.5 1.6-.6 2.7v1l-.2.7H142l-.2-1-.2-1.3-.4-1.3a5 5 0 0 0-2-2.8c-1-.3-1-.3-2.2-.4l-1.2-.2-1-.2-.3-1.5 1-.2 1.3-.3 1.3-.3a6 6 0 0 0 3.2-2.8q.5-1.3.6-2.7l.1-1z" style="fill:#899196;stroke-width:.397652"/><path d="M73.5 175.2h37v1.5h-37Z" style="fill:#ebecf0;stroke-width:.397652"/><path d="M146 86h25.8l.4 1.7c-.4.4-.4.4-1.5.4H146z" style="fill:#ced3d7;stroke-width:.397652"/><path d="M36.4 98.4H60v2H35.4l-.4-1.6c.4-.4.4-.4 1.4-.4" style="fill:#d0d5d8;stroke-width:.397652"/><path d="M138.2 167.6h16q1.3 0 2.5.8v1.2c-1 .5-1.6.5-2.7.5h-17.2c-.8-.1-.8-.1-1.6-.5l.4-1.6c.9-.4 1.5-.4 2.6-.4" style="fill:#eff0f3;stroke-width:.397652"/><path d="m143.5 155.3.4.8h23.5v1.6h-26.7c2-1.6 2-1.6 2.8-1.6z" style="fill:#cbd0d4;stroke-width:.397652"/><path d="M39.5 167.6h16.1c.8 0 .8 0 2 .8l-.4 1.2h-19c-.8 0-.8 0-1.6-.4.6-1.8 1.2-1.6 3-1.6" style="fill:#edeef1;stroke-width:.397652"/><path d="m84.7 23.3.1.7.2 1 .2 1a4 4 0 0 0 1.5 2l2.8.4v1.2l-.8.1-1 .2-1 .2c-.9.2-.9.2-1.3 1l-.7 3.3h-1.2v-1.5c-.3-1.1-.3-1.6-1-2.4q-1.8-.8-3.8-.9v-1.2l4-1.2.4-1.7c.4-2.2.4-2.2 1.6-2.2" style="fill:#d1d5d9;stroke-width:.397652"/><path d="M167.8 66.6h.8l.1.7.2.8.3 1c.1.7.1.7.6 1l2.8.5.4 1.2-3.6.8-.8 3.1h-1.2l-.1-1.3-.3-1.4a7 7 0 0 0-3.6-1.2l.4-1.2 1.4-.3c1.4-.4 1.4-.4 1.8-1.3z" style="fill:#cfd4d7;stroke-width:.397652"/><path d="M44.1 48q1 1.2 1.8 2.7A5 5 0 0 0 48 53l2.1.5 1 .2h.9l-.4 1.7h-.8c-2.1.4-3.7.7-5.2 2.3q-1 1.7-1 3.5l-.2 1v.7c-.8-.4-.8-.4-1-1a13 13 0 0 1-.2-3.8q1.8-2.1 4.4-3.5l-.7-.5c-2.4-1.8-2.4-1.8-2.8-3.4q-.2-1.4 0-2.9" style="fill:#899095;stroke-width:.397652"/><path d="M122 100h.5v5.2h.8c.8 3.2-.6 5.6-2.1 8.4l-.7 1.1-2-.4.6-1.1.8-1.5.4-.8a18 18 0 0 0 1.6-7.9v-.9z" style="fill:#8b9297;stroke-width:.397652"/><path d="M102.6 56.1c1.2.2 1.2.2 2 .6.4.8.4.8.3 1.8-.3 1-.3 1-1.1 1.7-1.2.2-1.2.2-2.4 0-.8-.8-.8-.8-1-2 .3-1.5.6-1.9 2.2-2" style="fill:#838b8f;stroke-width:.397652"/><path d="M81.5 98.8h.4l.4 2.4 1.2-.4.3 3.5v1q.2 1.3 0 2.7c-.7.7-.7.7-1.5 1.1q-1-5-.8-10.3" style="fill:#9aa0a4;stroke-width:.397652"/><path d="m143.5 35.6 1.6 2.4c1.4 1.7 3.5 2 5.6 2.4v1.1c-2.3.5-2.3.5-3.2 0l-.8-.1q-1.3-.4-2-1.6l-.7-.7c-.5-.7-.5-.7-.9-2z" style="fill:#959ba0;stroke-width:.397652"/><path d="M103.3 81.3h2.5v.4l-2.4.4v.4l2 .4v.4l-3.7.3h-1.1l-1 .1h-1c-.8 0-.8 0-1.6-.8 1.6-2 4-1.6 6.3-1.6" style="fill:#8b9297;stroke-width:.397652"/><path d="m83.9 27.6 1.6 1.6-.4.8.8.4-.4.6a12 12 0 0 0-.8 3.4h-1.2v-1l-.2-1.3v-1.3l-.6-2.4z" style="fill:#d7dbdd;stroke-width:.397652"/><path d="M114.1 118.3c0 1.8 0 1.8-.4 2.8-1 .6-1 .6-2.1 1l-1.2.6c-1 .4-1 .4-1.9 0v-.8l-.8-.8 1-.3 1.1-.4 1.2-.4z" style="fill:#878f95;stroke-width:.397652"/><path d="M168.6 70.2c.4 1.2.4 1.6 0 2.8h-.8v2.7h-.4l-.1-1.3-.3-1.4a7 7 0 0 0-3.6-1.2l.4-1.2q2.3-.5 4.8-.4" style="fill:#d5d9dc;stroke-width:.397652"/><path d="m109 121.5-.5 1.6a15 15 0 0 1-4.4.5h-1.5l-1.2-.1-.8-1.2.9-.1h1.2l1.2-.2z" style="fill:#798389;stroke-width:.397652"/><path d="M124 99.2v6.4l-.7.8v-1.2h-.8q-.1-2.9.4-5.6c.7-.4.7-.4 1.1-.4" style="fill:#879095;stroke-width:.397652"/><path d="M122 100h.5v5.2h.8c.4 2.5.4 2.5 0 3.7l-.4.6c-.6-.4-.6-.4-1.2-1.1V104l.2-1.2z" style="fill:#a0a6aa;stroke-width:.397652"/><path d="M35.8 53.9c2.6-.2 2.6-.2 3.5.5.4.7.4.7.4 1.5l-4-.4z" style="fill:#899096;stroke-width:.397652"/><path d="M81.5 98.8h.4l.4 2.4h.4l.3 1.7.1 1c0 .9 0 .9-.6 1.5l-.6.6q-.6-2.2-.4-4.5z" style="fill:#91989d;stroke-width:.397652"/><path d="M150.7 40.4v1.1c-2.3.5-2.3.5-3.2 0l-1.6-.4v-.7c1.7-.4 3-.4 4.8 0" style="fill:#969da2;stroke-width:.397652"/><path d="M103 81.7h3.6l.7 1.6-5.1-.4z" style="fill:#7a8288;stroke-width:.397652"/><path d="M137.6 41.5c1.7.2 2.6.3 4 1.4.7 1 .7 1 .7 1.8l-1.2.4-.2-.7c-.8-1.3-2-1.7-3.3-2.5z" style="fill:#858c91;stroke-width:.397652"/><path d="m144 144.5 2 .4v6.4h-.5v-5.2h-1.2z" style="fill:#abb0b3;stroke-width:.397652"/><path d="M112.1 119.9v.8l-.7.3a6 6 0 0 0-2 2l-.9-.3v-.8l-.8-.8 1.8-.6 1-.3c.8-.3.8-.3 1.6-.3" style="fill:#90989e;stroke-width:.397652"/><path d="m32.2 109.5 2 .4-.4 1.6h-1.6l-.4-1.6z" style="fill:#92989d;stroke-width:.397652"/><path d="m122.9 97.2.7.4v2.4h-.3l-.4 2h-.4l-.4-4.4z" style="fill:#7d868c;stroke-width:.397652"/><path d="m141.5 46.3.4.8h1.6v2H142z" style="fill:#979ea3;stroke-width:.397652"/><path d="m83.9 27.6 1.6 1.6-1.6 1.2-1.2-1.2v-.8z" style="fill:#fafafb;stroke-width:.397652"/><path d="m41.1 53 .6.5c-1.3.9-1.6.8-3 .7l-1-.2-.7-.1v-.4c2.9-.9 2.9-.9 4.1-.5" style="fill:#989fa4;stroke-width:.397652"/><path d="M84.7 30.4q.6 2 0 4h-.8c-.1-2.4-.1-2.4 0-3.2z" style="fill:#ccd1d5;stroke-width:.397652"/><path d="m39.7 55 2 .9v1.6l-2.4-1.2z" style="fill:#989ea2;stroke-width:.397652"/><path d="M43 46H44l-.8 3.9H43z" style="fill:#8b9397;stroke-width:.397652"/><path d="M145.1 38.8c2.3.7 2.3.7 3.2 1.6-2.7 0-2.7 0-3.6-.4z" style="fill:#878e93;stroke-width:.397652"/><path d="M114.1 118.3q.1 1.4-.4 2.8l-1.2.4.4-1.6-.8-.4z" style="fill:#8e959a;stroke-width:.397652"/><path d="M106.2 121.5h2.7l-.4 1.6q-1.4-.6-2.3-1.6" style="fill:#848d93;stroke-width:.397652"/><path d="m144.7 116 .8.3c0 1.2-.2 1.8-.8 2.8h-.8v-2.4z" style="fill:#b9bfc3;stroke-width:.397652"/><path d="m169 70.6-.4 1.6-1.6-.8v-.8c.8-.4.8-.4 2 0" style="fill:#f5f6f6;stroke-width:.397652"/></svg>