<?xml version="1.0" encoding="UTF-8" standalone="no"?>
<svg
   version="1.0"
   width="24"
   height="24"
   viewBox="0 0 18 18"
   preserveAspectRatio="xMidYMid"
   id="svg4"
   sodipodi:docname="domaintracker_24.svg"
   inkscape:version="1.4 (86a8ad7, 2024-10-11)"
   xmlns:inkscape="http://www.inkscape.org/namespaces/inkscape"
   xmlns:sodipodi="http://sodipodi.sourceforge.net/DTD/sodipodi-0.dtd"
   xmlns="http://www.w3.org/2000/svg"
   xmlns:svg="http://www.w3.org/2000/svg">
  <defs
     id="defs4" />
  <sodipodi:namedview
     id="namedview4"
     pagecolor="#ffffff"
     bordercolor="#000000"
     borderopacity="0.25"
     inkscape:showpageshadow="2"
     inkscape:pageopacity="0.0"
     inkscape:pagecheckerboard="0"
     inkscape:deskcolor="#d1d1d1"
     inkscape:document-units="pt"
     inkscape:zoom="8"
     inkscape:cx="-0.375"
     inkscape:cy="37.5625"
     inkscape:window-width="2560"
     inkscape:window-height="1369"
     inkscape:window-x="-8"
     inkscape:window-y="-8"
     inkscape:window-maximized="1"
     inkscape:current-layer="svg4" />
  <metadata
     id="metadata1">
Created by potrace 1.15, written by Peter Selinger 2001-2017
</metadata>
  <g
     transform="matrix(0.00375217,0,0,-0.00375217,-0.96338839,18.7384)"
     fill="#000000"
     stroke="none"
     id="g4">
    <path
       d="m 2448,4541 c -466,-289 -845,-428 -1411,-515 -105,-16 -153,-28 -167,-41 -20,-18 -21,-27 -18,-764 3,-847 0,-806 93,-1088 197,-594 616,-1062 1230,-1373 187,-94 390,-173 429,-167 52,8 213,75 381,157 678,332 1124,854 1290,1510 43,172 55,289 55,549 v 241 l -82,-67 -83,-67 -6,-200 c -8,-233 -28,-358 -87,-541 -95,-290 -251,-548 -471,-778 -219,-228 -528,-432 -879,-581 -60,-25 -119,-46 -131,-46 -30,0 -150,50 -300,124 -165,82 -202,103 -326,187 -481,326 -778,746 -911,1290 l -28,114 -3,680 -4,681 158,28 c 87,15 235,47 328,71 365,95 577,184 966,408 l 116,67 149,-85 c 170,-98 422,-228 432,-223 4,2 33,31 66,65 l 58,62 -103,49 c -123,57 -375,196 -474,260 -54,35 -82,46 -120,49 -47,4 -56,0 -147,-56 z"
       id="path1"
       style="fill:#000000;fill-opacity:1" />
    <path
       d="m 3755,4309 c -248,-22 -469,-200 -547,-439 -13,-40 -23,-102 -25,-161 -9,-167 45,-310 164,-439 71,-77 163,-139 262,-177 53,-21 89,-27 181,-30 207,-9 346,44 485,182 128,127 185,264 185,444 0,174 -58,312 -184,436 -92,91 -166,134 -276,164 -94,24 -145,29 -245,20 z m 99,-210 26,-20 v -178 c 0,-124 4,-181 12,-189 8,-8 52,-12 132,-12 97,0 123,-3 138,-17 22,-20 23,-61 1,-85 -14,-16 -33,-18 -145,-18 -115,0 -133,-2 -155,-20 -76,-60 -183,23 -154,119 6,21 18,44 26,51 12,10 15,43 15,177 0,161 0,164 25,188 29,30 45,31 79,4 z m 1,-789 c 12,-39 -20,-68 -56,-50 -25,14 -24,45 2,64 25,17 46,12 54,-14 z"
       id="path2"
       style="fill:#000000;fill-opacity:1" />
    <path
       d="m 2405,3850 c -445,-51 -847,-356 -1020,-774 -190,-460 -88,-992 260,-1355 130,-135 255,-223 418,-293 475,-205 1013,-104 1387,262 273,267 416,650 379,1016 -10,97 -32,211 -44,222 -3,3 -26,8 -51,10 -25,2 -66,10 -92,17 -25,8 -47,13 -49,11 -2,-1 4,-23 13,-47 22,-64 54,-208 54,-251 0,-38 0,-38 -41,-38 -41,0 -41,0 -35,-31 3,-17 6,-44 6,-60 0,-24 4,-28 33,-31 31,-3 32,-4 29,-43 -8,-106 -72,-305 -128,-400 l -24,-42 -143,-11 c -290,-23 -310,-23 -303,-6 3,9 15,51 26,95 54,211 67,477 29,593 -19,56 -103,185 -115,174 -2,-2 1,-42 6,-89 5,-46 10,-99 10,-116 v -33 h -486 -486 l 7,68 c 17,183 39,294 78,407 l 14,40 141,3 141,3 -9,25 c -6,14 -10,41 -10,60 v 34 h -100 c -64,0 -100,4 -100,11 0,13 44,90 80,139 55,78 118,145 188,201 l 74,59 28,-20 c 15,-11 61,-51 101,-88 62,-58 83,-71 129,-82 30,-7 72,-19 93,-26 l 37,-13 -31,45 c -17,25 -58,74 -92,110 l -61,66 40,-8 c 57,-10 160,-43 222,-70 l 54,-24 -6,23 c -3,12 -6,56 -6,97 v 76 l -82,27 c -46,14 -117,34 -158,43 -90,19 -295,26 -405,14 z m -131,-242 c -64,-67 -108,-128 -174,-245 l -52,-93 -147,1 c -80,1 -157,4 -171,8 -24,7 -22,10 55,85 95,93 193,161 318,222 78,37 175,71 212,73 5,1 -13,-23 -41,-51 z m -274,-472 c 0,-7 -7,-32 -15,-55 -26,-75 -56,-236 -63,-342 l -7,-104 h -225 -225 l 3,55 c 7,109 51,266 110,388 l 35,72 h 193 c 158,0 194,-3 194,-14 z m -77,-716 c 9,-111 32,-229 63,-336 13,-48 23,-88 22,-89 -4,-4 -251,13 -317,21 -39,5 -61,14 -77,31 -50,54 -143,332 -144,431 v 32 l 223,-2 222,-3 z m 1083,-7 c -8,-108 -35,-253 -67,-354 l -21,-66 -151,-6 c -190,-9 -472,-9 -559,-1 -66,7 -66,7 -76,43 -5,20 -22,76 -36,126 -26,88 -61,329 -50,346 3,5 220,9 486,9 h 481 z m 343,-579 c -125,-129 -294,-234 -463,-289 -124,-40 -126,-37 -49,59 38,46 90,124 116,173 l 47,90 192,12 c 106,7 195,15 197,17 2,2 7,2 10,-1 2,-3 -20,-31 -50,-61 z m -1380,39 c 91,-6 94,-7 110,-36 38,-70 113,-179 165,-240 31,-37 53,-67 48,-67 -5,0 -41,11 -81,25 -157,53 -338,170 -451,291 l -44,47 79,-7 c 44,-3 122,-9 174,-13 z m 884,-10 c 3,-5 -14,-39 -37,-77 -46,-78 -192,-231 -247,-260 l -36,-19 -59,46 c -83,63 -154,139 -214,227 l -51,75 283,5 c 156,3 300,6 320,8 20,1 39,-1 41,-5 z"
       id="path3"
       style="fill:#000000;fill-opacity:1" />
    <path
       d="m 2577,3434 c -34,-18 -45,-50 -50,-145 -6,-109 -1,-132 33,-169 26,-28 33,-30 97,-30 169,0 347,-100 446,-251 53,-80 79,-167 84,-284 7,-142 11,-145 165,-145 113,0 120,1 143,25 23,22 25,31 25,127 0,458 -361,834 -842,877 -54,5 -85,3 -101,-5 z"
       id="path4"
       style="fill:#f59e0b;fill-opacity:1" />
  </g>
</svg>
