<svg xmlns="http://www.w3.org/2000/svg" width="200" height="200" style="display:block"><path d="M79.1 38.3h17.7l25.4-.1h1.5c3.3 0 6.3.5 9 2.6l.6.8.6.8c1.6 2.5 1.5 5 1.5 7.8v25l-.1 16-2 .4V91l-.2-40.3v-1.2c0-2.6-.4-4-1.9-6.1-1.8-1.7-3-2.1-5.4-2.1h-11.6L77.3 41c-2.7 0-4.5.1-6.6 1.9-2 2.1-1.9 4-1.9 6.8v100.2c0 2.3.3 3.7 1.9 5.5 2.2 2.2 4.8 1.9 7.7 1.9h46.1c2.7 0 4.6-.2 6.7-1.9 1.4-1.6 1.4-3.2 1.4-5.3l.1-12.3v-6l.1-11.7 2-.4c.9.8.5 2.3.5 3.3v6.3l.1 20v.8a11 11 0 0 1-2 6.6l-.7.7-.6.6c-2.9 2.2-5.6 2-9.1 2h-9.7l-34.4.1h-2.3c-3.3 0-5.4-.5-7.8-2.8-2.4-2.8-2.8-5.1-2.8-8.7V48.5c0-3 .7-5 2.6-7.4l.8-.6.7-.7c2.8-1.7 5.9-1.5 9-1.5" style="fill:#4d545a;stroke-width:.406373"/><path d="M102.3 64.3Q96 64 91 68.5a17 17 0 0 0-4.7 12c0 5.6-.1 10-3.7 14.5q-1.5 1.5-2 3.3c0 1.8.4 2.8 1.5 4.1 1.6 1.3 1.6 1.3 7 1.2l5.7-.2h1c0 1.3-.1 2.5.5 3.7.9 1.4 1.7 2.6 3.4 3.1 2.1.3 3.7.2 5.5-1.1 1.2-1.4 1.7-2.4 1.7-4.2v-1.5h3.2v-2l-26-.4-.4-.8c-.2-1.7-.2-2.6.7-4 3.2-3.4 4.2-7.1 4.3-11.8.1-3.6.1-7 1.4-10.5q2.7-4.8 8-6.6c3.6-1 6.3-.5 9.7 1l1 .6c1.1.4 1.6.6 2.1 1.5s.4 1 1.4 2.6c2 4.8 2 4.8 2 10.1.1 3.8.3 7 2.7 10.2l1.6-.9q-1.3-4-1.4-8 0-3.1-.2-6.2a18 18 0 0 0-5.5-10.2l-1-.8-1-.8q-3.6-2-7.2-2.1m-4.4 39.1h7.3c0 2.4 0 2.4-1 3.6l-1 .9-.4.4c-1.5.2-2.3 0-3.6-.6-.9-1-.9-1-1.3-4.3" style="fill:#4a5359;stroke-width:.406373"/><path d="M48.7 107.8h7.7c.8 2.4.8 2.4 1 3.6.2 1 .2 1 1.4 1.7 1.7.6 2.6.4 4.3-.4l.7-.4v2c-1 1-1 1-2 1.7a12 12 0 0 1-6.2-2.4c-.5-1.4-.4-2.2-.4-3.7h-6v3.3l-2.1 1.2-.9.5c-2.4 1.6-2.4 1.6-4 1.3l-.8-.6c-1.1-.9-1.1-.9-2.2-.8-1.5.6-2 1.5-3 2.8q.5 1.4 1.5 2.4c.5.9.5.9.2 2l-.6 1.3q0 .5-.4 1l-1.2 2.7h-3.6v5.3l4 .4c2 4.3 2 4.3 2 6-.7 1.4-.7 1.4-1.6 2.5.7 1.6 1.7 2.5 2.9 3.7a15 15 0 0 0 3.2-1.7q2.2.3 4.2 1.3l1 .4c1 .4 1 .4 1.3.8l.4 3.2 5.7.4-.1-1.7.1-2c.9-.7.9-.7 2-1.1l1.5-.7c2.1-.8 2.1-.8 3.4-.6 1.2 1 1.2 1 2 2v1.7c-2-.8-2-.8-2.4-1.2q-2.1-.4-4 .8-.5 1.5-.7 3.1c-.1 1-.1 1-.6 1.4H48l-.1-.9-.2-1.1-.2-1.1c-.2-1.2-.2-1.2-1.6-1.9-2-.4-3-.3-4.6.7-1 .6-1 .6-1.8.6a14 14 0 0 1-5.3-4.9c0-1.4.2-2.1 1-3.2.8-.8.8-.8.5-2q0-.7-.3-1.3l-.4-1.6h-.8l-2.3-.2c-1-.2-1-.2-1.8-1v-4.5c0-2.3 0-2.3.8-3.2l2-.3 1.7-.2 1.6-4-1.2-.4c-.7-.7-.7-.7-1.2-1.6.1-1.7.6-2.5 1.7-3.7l.8-.9.7-.7 1-1c.7-.7.7-.7 1.4-.7.9.4.9.4 2 1.3s1.2 1 2.3.5l1-.5 3-.9-.1-.8v-2.2c0-1.3 0-1.4 1.2-1.5" style="fill:#495258;stroke-width:.406373"/><path d="M131.2 94.5q5 2.8 6.8 8.2c.4 3.9 0 7-2.2 10.2q-3.3 4.3-8.6 5.1c-3.7.4-6.6-.1-9.6-2.4a14 14 0 0 1-5-10q.4-5.2 4-9c4.3-3.8 9.5-4.7 14.6-2.1m-13.5 4.1c-1.8 2.4-3 4.5-2.9 7.5.5 3.5 2 6 4.6 8.3 2.8 1.7 6.2 1.7 9.4 1.2q4.1-1.5 6-5.3 1.9-4.2.6-8.8c-1.4-2.7-3.6-4.1-6.4-5.5-4.1-1.3-8.3-.6-11.3 2.6" style="fill:#4a5259;stroke-width:.406373"/><path d="m152.4 168-.5 1.2q-25.5.6-51 .5H77q-13 0-25.7-.5v-.8z" style="fill:#bdc0c2;stroke-width:.406373"/><path d="M156.4 132.3q4.1 2.2 5.8 6.5.6 2.3.7 4.4h1.3c5.4.2 5.4.2 7.7 2.5a9 9 0 0 1 2.1 6.3q-.4 2.8-2.7 4.8c-2.7 1.9-5.3 1.7-8.4 1.7h-6l-4.4-.1-8.7-.1V157h1l17.5-.2h4.3q3-.5 4.9-2.7a9 9 0 0 0-.3-6.7 7 7 0 0 0-5.4-2.3l-2.3.1c-1 0-1 0-1.7-.5q-.9-1.6-1-3.5c-.6-2.7-1.2-4.7-3.5-6.3q-3.6-2-7.8-1.3-3.1.9-5 3.4-.8 1.8-1.5 3.7l-4.9-.4.4-1.2h1.5c1 0 1 0 1.8-.4l1.1-2c2.8-5 8.3-6.4 13.5-4.5" style="fill:#b3b7ba;stroke-width:.406373"/><path d="M59.8 119.9c2 1.5 3 3 3.6 5.5v2.8H62l-.1-.7q-1-4-4.3-6.3a12 12 0 0 0-8.9-.8q-3.9 1.7-5.8 5.8c-.2 3.3-.3 6.5 1.7 9.3q2.3 2.8 5.7 3.4c3.4 0 6.7 0 9.3-2.5l1.6-2.1 1.2.4a5 5 0 0 1-1.8 3.5l-.8.7c-2.5 1.7-4.6 2.1-7.5 2l-1 .1q-4.2 0-7.4-3a14 14 0 0 1-3.6-8.9c.2-4.1 2-6.6 5-9.4 4.6-3 10-2.7 14.4.2" style="fill:#4b5359;stroke-width:.406373"/><path d="M155.2 45.3c2.4.3 3.5 1.6 5.3 3.2l1 1c4.7 4.3 8.1 10 10 16.1q0 .6.3 1c.8 3.2 1 6 1 9.3v1.4a35 35 0 0 1-11 24.5c-1.7 1.5-1.7 1.5-2.5 2-1-.1-1-.1-1.7-.4q1.9-2.3 4-4c3.5-3 5.7-7.7 7.4-11.8l.4-1a35 35 0 0 0-7.3-34l-1-1.3q-2.2-2.1-4.6-4c-.9-.8-.9-.8-1.3-2" style="fill:#a8acb0;stroke-width:.406373"/><path d="M40.2 49.4c-.2 1.5-.8 2.2-1.9 3.2q-2.6 3-4.6 6.5l-.5.8a35 35 0 0 0-2 26.4q2.4 7 7.5 12.6c.7.9.7.9.7 1.7-1.4-.2-2-.3-3-1.3A38 38 0 0 1 27.8 71c.7-5.3 5.5-21.5 12.5-21.5" style="fill:#abafb3;stroke-width:.406373"/><path d="M55.9 121.7q3.1 1.9 4.6 5.3.7 3.7-1.2 6.9c-2 2-3.4 3.3-6.4 3.3a9 9 0 0 1-6.5-2.2 10 10 0 0 1-2.3-6.8q.6-3.4 3.4-5.5a9 9 0 0 1 8.4-1m-9.2 4.1a9 9 0 0 0 0 6.6c1.2 1.6 2.2 2.5 4 3.1 2.5.3 3.9 0 5.9-1.4a6 6 0 0 0 2-4c0-1.8 0-3-.8-4.5-1.7-1.9-3.1-2.4-5.6-2.5-2.5.1-3.8.9-5.5 2.7" style="fill:#4c5459;stroke-width:.406373"/><path d="M131 100c-1 .2-1 .2-1.8.8l-.8.9-.9.9-2 2c-.7 1-.7 1-1.6.8l-1.2-1.2c-.9-1-1.5-1.5-2.9-1.6-.9.7-.9.7-1.6 1.6v2c.8 1.3.8 1.3 1.7 1.8l.8.3c0 .8 0 .8.4 1.4l.6.6c1.1 1.2 2 1.4 3.4 1.6q1.6-2 3.5-3.8l.6-.6 3.6-3.7c.2-1.5.2-1.5 0-2.8-.8-.8-.8-.8-1.7-1m-.6 1.8 1.2.4c-.4 1.4-.8 1.6-1.9 2.5a27 27 0 0 0-4 4.2c-.6.6-.6.6-2.2.6l-2-1.8-1-1-.7-.9.4-1.2a7 7 0 0 1 2.7 2c1 1 1 1 2.2.9l1.4-1.5q1.8-2.2 4-4.2" style="fill:#454d53;stroke-width:.406373"/><path d="M44.3 163.6h93.4l.4 1.2a8699 8699 0 0 1-90-.3h-1c-2 0-2 0-2.8-1" style="fill:#b1b3b5;stroke-width:.406373"/><path d="M149.1 54.2c2.8.3 4.3 2.5 6.1 4.5q1.3 1.8 2.4 3.7l.6.8a26 26 0 0 1 2.7 18.2c-1.2 5.1-3.7 10-7.7 13.5l-1.7.8c0-2 .3-2 1.5-3.4 5-5.4 6.6-12 6.3-19.4a25 25 0 0 0-10.2-17.4z" style="fill:#afb3b7;stroke-width:.406373"/><path d="M73.5 145.3h53.7l-.4 1.2H73.5z" style="fill:#afb2b6;stroke-width:.406373"/><path d="M48.7 56.7q-.7 1.7-2 3c-4.3 4.8-6 11.1-5.8 17.4.6 6.7 2.6 11.8 7.4 16.6v1.6c-4.1-1.8-6.5-7-8.1-11q-3.2-11 1.7-21.1c4.3-7.4 4.3-7.4 6.8-6.5" style="fill:#aeb2b5;stroke-width:.406373"/><path d="m56 62.8 1.3.4q-1 1.7-2 3.3a18 18 0 0 0-2.7 12.3c.9 4.2 3 8 6.7 10.4l-.4 2c-4.6-3.7-7.9-7.8-8.5-13.8A18 18 0 0 1 56 62.8" style="fill:#acb0b4;stroke-width:.406373"/><path d="M76.8 174.5h39.8v.8c-1.4.7-3 .5-4.5.5H76.8z" style="fill:#c9cbcd;stroke-width:.406373"/><path d="M142.6 62.8c2 .3 3.2 1.6 4.5 3.2 2.7 4.6 3.4 9 2.6 14.2-.7 3-2.5 6-5 7.8h-1.3q.8-1.8 2-3.2c2.4-3.1 3.1-7 2.8-10.9a15 15 0 0 0-5-9.3c-.6-.6-.6-.6-.6-1.8" style="fill:#abafb2;stroke-width:.406373"/><path d="M92.5 44.4h17.2l.4 1.7c-1 .5-1.5.5-2.5.5H91.8l-.4-1.7c.4-.4.4-.4 1.1-.5" style="fill:#535c61;stroke-width:.406373"/><path d="M54 31.5h.4l.1.7c.4 2 .7 3.6 2.4 5l2.8.4v1.2c-.7 0-.7 0-1.3.2-1.5.2-1.5.2-2.8.6-.4 1.2-.4 1.2-.6 2.7l-.4 1.5-.2 1H54l-.1-.7q-.3-2.4-1.3-4.3c-1.6-1-3.3-1.1-5-1.4q0-.4.3-.8l2-.4c1.6-.2 1.6-.2 2.9-1.3z" style="fill:#c5c6c7;stroke-width:.406373"/><path d="M152.4 114.4h.8l.8 2.8 3.2.8c-.5 1.2-1.3 1.4-2.4 2-1 1-1 1.6-1.2 3h-1.2l-.3-1a6 6 0 0 0-2.6-2.7c-.9-.4-.9-.4-1.6-.4v-.9l1.4-.1c1.4-.1 1.4-.1 2.2-1z" style="fill:#b5b9bb;stroke-width:.406373"/><path d="m136.5 24.2.8.4.3 1c.7 1.4 1.5 1.6 3 2.2V29l-1 .4c-1.1.4-1.1.4-1.9 1.3l-.4 2h-1.2q0-.6-.3-1.1c-.4-1.4-.4-1.4-1.8-2.1l-1.2-.5c.5-1.1.8-1.5 1.9-2.2 1.2-.7 1.4-1.3 1.8-2.6" style="fill:#b0b4b7;stroke-width:.406373"/><path d="M37.7 157.8h5.7v1.3h-5.2l-1.5.1c-3 0-5 .3-7.5 2q-1.4 1.5-2 3.6l-1.2-.4a10 10 0 0 1 4-5.8c2.3-1.3 5.1-1 7.7-.8" style="fill:#afb3b6;stroke-width:.406373"/><path d="M143.8 157h15.5q3.3 0 6.5.5v.4a40 40 0 0 1-8.6.4h-13.4z" style="fill:#a5a9ad;stroke-width:.406373"/><path d="M90.6 49.8h19V51H90.3z" style="fill:#94999e;stroke-width:.406373"/><path d="m61.3 134.3 1.2.4c-.2 2.2-1 2.9-2.7 4.2a10 10 0 0 1-7.4 1.9l.4-.8-2-.4v-.4l1-.1c3.9-.5 6.4-1 9-4z" style="fill:#545c61;stroke-width:.406373"/><path d="M128.1 163.5h9.6l.4 1.3h-15l-.4-.8q2.7-.5 5.4-.5" style="fill:#b8babc;stroke-width:.406373"/><path d="M53.6 36v1.2L52 38l2.4 2.4.8-.8c.6 1.2.2 1.9-.1 3.1l-.4 1.2q0 .6-.3 1H54L54 44q-.3-2.4-1.3-4.3c-1.6-1-3.3-1.1-5-1.4q0-.4.3-.8l2-.4c1.4-.3 2.5-1.2 3.7-1.2" style="fill:#c3c4c5;stroke-width:.406373"/><path d="M52.4 158.3h10.1v1.2h-9.7z" style="fill:#b8babb;stroke-width:.406373"/><path d="m57.7 97.6.9.3c.7.2.7.2 1.1 1l-.4 2c-1.4.2-1.4.2-2.9 0-.7-.6-.7-.6-1.2-1.6v-1.6c1-.5 1.4-.3 2.5 0" style="fill:#ccd0d2;stroke-width:.406373"/><path d="M143.8 157h6.1v.5l10.6.4v.4h-16.7z" style="fill:#b0b2b5;stroke-width:.406373"/><path d="M84.2 174.4h7.4l4.7.1-.4.8c-3 .6-5.8.4-8.8.3l-5-.3c.8-.8.8-.8 2-.9" style="fill:#bcbfc1;stroke-width:.406373"/><path d="m54 35.5 2 2c0 1.3 0 1.3-1 2.4l-1 1-.8-1-1.6-2 1-.2c1-.4 1-.4 1.3-1.4z" style="fill:#f6f7f7;stroke-width:.406373"/><path d="m97 86 1.1.3c1.7.5 3 .6 4.7.4l1.2-.8h1.2c-.4 1.3-.4 1.3-1.2 2a8 8 0 0 1-4.9.5c-1.2-.8-1.2-.8-2-1.7z" style="fill:#afb1b3;stroke-width:.406373"/><path d="M97 70.9q-.8 2-2.4 3.7l-1.2 2c-.5-.7-.5-.7-.8-1.6.7-2 2.2-4.1 4.5-4.1" style="fill:#bec1c4;stroke-width:.406373"/><path d="M91.8 116q2.6.3 5.3.8v1.2c-2.1.1-3.7 0-5.7-.8z" style="fill:#b8babc;stroke-width:.406373"/><path d="M82.9 62q1.8.8 3.3 2.2l.9.8.6.6q0 .6-.4 1.2l-1.5-1.1-.9-.6q-1-.8-2-2z" style="fill:#c0c0c1;stroke-width:.406373"/><path d="M113 94.5a6 6 0 0 1-1.7 3.1l-.6.8c-.6.5-.6.5-1.4.5.2-1.3.7-2 1.6-3.1l.6-.8c.6-.5.6-.5 1.4-.5" style="fill:#545c62;stroke-width:.406373"/><path d="M119.4 61.1c-.2 1.5-.7 2.2-1.8 3.2l-.8.8-.6.5-.8-.4c.6-1.6 2.2-4 4-4" style="fill:#bdbfc0;stroke-width:.406373"/><path d="M72.7 94.5h4.5v1.2h-4.9z" style="fill:#c4c4c6;stroke-width:.406373"/><path d="M76.4 49.8h5.2q0 .6-.4 1.2h-3c-1 0-1 0-1.8-.4z" style="fill:#b3b7ba;stroke-width:.406373"/><path d="M106.8 116.8h5v.8c-1.3.4-2 .5-3.2.5h-1.8z" style="fill:#c0c0c2;stroke-width:.406373"/><path d="M28.4 113.2h1.2v2l-.8.8-1.6-.4.4-1.6h.8z" style="fill:#889195;stroke-width:.406373"/><path d="m145 98.5 1.3.4q0 1 .4 2H145v-.7l-1.2-.4z" style="fill:#bebfc1;stroke-width:.406373"/><path d="m141.8 55 1.6.5v2h-1.6l-.4-2z" style="fill:#aaadb1;stroke-width:.406373"/><path d="M121.5 49.8h4.8V51l-4.8-.4z" style="fill:#b6b6b8;stroke-width:.406373"/><path d="m56 97.3 2 .8-2 2c-.8-.8-.8-.8-.8-2.4z" style="fill:#a0a6a9;stroke-width:.406373"/><path d="M145.4 47.7c.9.3.9.3 1.7.8l.4 1.3-1.6.4-1.3-.8V48q.5 0 .8-.4" style="fill:#b0b3b5;stroke-width:.406373"/><path d="m128 80.7-.4 1.2h-4.1c.4-.8.4-.8 1-1q1.8-.4 3.5-.2" style="fill:#bdbdbf;stroke-width:.406373"/><path d="M101.1 56.7h.9q.6 1.5.4 3.2l-.4.8h-.9z" style="fill:#c9cacb;stroke-width:.406373"/><path d="m143 91.2 1.2.4-.4 2-1.6-.3c.3-1.6.3-1.6.8-2" style="fill:#aeb0b3;stroke-width:.406373"/><path d="M97 86c1.6.4 2.7.7 3.7 2l-2.8-.4c-.6-.9-.6-.9-.8-1.7" style="fill:#a7a9ac;stroke-width:.406373"/><path d="m135.7 27.4 2 .4V29h-2z" style="fill:#f3f5f5;stroke-width:.406373"/><path d="m100.7 69.3 2 .4v1.2h-2z" style="fill:#b5b6b8;stroke-width:.406373"/></svg>