<svg xmlns="http://www.w3.org/2000/svg" width="200" height="200" style="display:block"><path d="m142.2 35.9 1.5.5a36 36 0 0 1 18.9 18.5 34 34 0 0 1 0 25.2q-1.6 3.4-3.6 6.5c-.6.9-.6.9-.4 1.8l.3.7h1.4c2.1.3 3 1.3 4.4 2.8l.6.6 3.2 3.6q1.8 2.1 4 4.1l.6.7 4.7 4.5.6.6q2.3 2 2.9 5.2c0 3-.5 4.8-2.6 7-2 1.9-4 3.4-7 3.3-2-.6-3.4-2.4-4.8-3.8l-.8-.8q-1.7-1.6-3.2-3.4-3.3-3.6-6.9-7.1l-2.8-2.7-.6-.7c-2.4-2.3-2.4-2.3-2.6-4.2 0-1.4 0-1.4-.9-2-1.5-.3-2.6.5-3.9 1.1a35 35 0 0 1-8.1 2.7l-1 .2a33 33 0 0 1-26.8-7.7l-.7-.6a33 33 0 0 1-11.2-20 35 35 0 0 1 6.8-25.7 34 34 0 0 1 38-11m-33.3 10-1 1a30 30 0 0 0-7.8 22.7 30 30 0 0 0 7.7 18.7 29 29 0 0 0 17.9 9.9 33 33 0 0 0 24-5.8A34 34 0 0 0 162 72.8a30 30 0 0 0-4.2-21.4l-3.7-4.8a29 29 0 0 0-17.8-9.8 31 31 0 0 0-27.3 9" style="display:inline;fill:#676b6e;stroke-width:.397077"/><path d="M39.5 53.7h57.1l.4 2c-.7.7-1.7.5-2.7.5H76.7l-34.4.1c-4.1 0-4.1 0-7.7 1.8-2.8 4.3-2.8 4.3-2 17h62.8l.4 2H32.6V126H37a16 16 0 0 1 10.8 8.8c.7.8.7.8 2 .9H51q4.3 0 7.7 2.6l.5.8a8 8 0 0 0 2.3 2.4q3.6.5 7.2.4h14.5l22.6-.2h28.5a8 8 0 0 0 4.7-1.4c1.7-2 1.8-3.5 1.8-5.9v-19.2l.1-12.3 2-.4c.8.8.5 2.6.5 3.7v5.6l.1 22.9v1a9 9 0 0 1-2.9 6.9 11 11 0 0 1-7.1 2.2H90.3l-27.4-.2v2.7a4 4 0 0 1-1 2.6l-.4.8a7 7 0 0 1-4.5 2.5H33.5c-5 0-8.4-.4-12.1-3.9-1.4-1.5-1.9-2.2-1.9-4.3 1 0 1 0 2 .4l1.6 2.4c2.4 1.8 4.3 2.5 7.3 2.5h25q2.2-.1 3.8-1.3c1-1.7.7-3.9.2-5.6-1.1-2.5-2.9-3.8-5.3-4.8a15 15 0 0 0-6.4 0l-1-1.3-.7-.9-1.2-1.7a14 14 0 0 0-7.8-6 15 15 0 0 0-11.5 2.8 12 12 0 0 0-2.4 2.8l-.7 1a15 15 0 0 0-1.7 5.4l-2-.4c-.3-3 1.1-5.8 2.8-8.2a13 13 0 0 1 8.4-5.3v-1l-.1-61.3V63c.2-3 1.2-5 3.2-7.3a9 9 0 0 1 6.5-2" style="display:inline;fill:#c4c5c5;stroke-width:.397077"/><path d="M39.5 53.7h57.1l.4 2c-.7.7-1.7.5-2.7.5H76.7l-34.4.1c-4.1 0-4.1 0-7.7 1.8-2.8 4.3-2.8 4.3-2 17h62.8l.4 2H32.6v49.3h-2.3L30 78V65.3c-.1-3.5 0-6 2.3-8.9 2.2-2.2 4.1-2.7 7.2-2.7" style="display:inline;fill:#63676a;stroke-width:.397077"/><path d="M145.4 46.6a26 26 0 0 1 10 12.7l.3.8c2.1 5 1 12-.8 17A26 26 0 0 1 141.2 91a27 27 0 0 1-20.6 0q-10-4.9-13.7-15.2a25 25 0 0 1 .4-18l.6-1.3A27 27 0 0 1 124 43c7.5-2.3 15-.3 21.5 3.6M113 53.3a22 22 0 0 0-4.8 16.7 24 24 0 0 0 9 15.8 25 25 0 0 0 18.9 4q2.2-.5 4.2-1.5l1-.4c5.8-2.5 9-7.2 11.5-12.7 1.8-4.8 2-11.2-.1-15.9l-.4-1A23 23 0 0 0 139 46.1c-10-3-19-.5-26 7.2" style="display:inline;fill:#686c70;stroke-width:.397077"/><path d="m141.4 102.6 2 .4.2 32.7a9 9 0 0 1-2.9 7 11 11 0 0 1-7.2 2.1H89.8l-27.7-.1v-2.4h1.1l66.2-.2c5.1.1 5.1.1 9.7-1.8 1.7-1.8 1.8-3.5 1.8-5.8v-12.9l.1-9.8v-6.6c0-2.2 0-2.2.5-2.6" style="fill:#63676a;stroke-width:.397077"/><path d="M48.5 159.7h68.7l.4 1.6c-.6.7-1.4.5-2.3.5h-70l-.4-1.6q1.8-.7 3.6-.5" style="fill:#cecfcf;stroke-width:.397077"/><path d="M70.1 151.8h36.4c.8 0 .8 0 1.6.4l-.4 1.6H68l-.8-1.6c.7-.7 1.9-.4 3-.4" style="fill:#cececf;stroke-width:.397077"/><path d="m157.7 137.1 1.6.8.4 1.8c0 1 .1 1 .4 1.8 1 .8 1 .8 2.4 1.2l1.1.5.9.3-.4 1.6-.8.1-1 .2-1 .2c-.9.2-.9.2-1.6 1l-.2 1.9-.2 1v.7l-2 .4-.1-.8-.2-1-.2-1.2c-.4-1.1-.7-1.5-1.9-2.1l-2.7-.4-.4-1.6q1.4-1.3 3.5-1.6c1-.4 1-.4 1.6-1.6l.4-2.8z" style="fill:#c8c9ca;stroke-width:.397077"/><path d="M77.5 30.7h1.6l.1.8.2 1.1.2 1c.3 1.2.6 1.6 1.5 2.3l1.6.1 1.6.3c.6.8.6.8.8 1.6-1.2 1-2 1-3.6 1-1 0-1 0-1.6 1.3l-.2 1.6c-.2 1.6-.2 1.6-1 2.4h-1.2v-.8C77 41 77 41 75.5 39.2a22 22 0 0 0-4-1.3c.2-.8.2-.8.7-1.6q2.3-.6 4.4-.8z" style="fill:#cacbcb;stroke-width:.397077"/><path d="M64 167.7h34.2c2.3 0 2.3 0 3.2.4l-.4 1.2H64Z" style="fill:#c8c8c8;stroke-width:.397077"/><path d="m122 159.8 17.8-.1h4.2c1 0 1 0 2.2.9l-.4 1.1h-24.2z" style="fill:#cfd0d1;stroke-width:.397077"/><path d="m123.6 52.2.4 1.5c-.8.8-.8.8-1.9 1.1a11 11 0 0 0-4.5 3.3 7 7 0 0 0-.4 2.8q1.4.2 2.7-.4l1.7-1.6.4 1.2a8 8 0 0 1-2.8 3.2 5 5 0 0 1-3.5-.6c-1-1.2-1.1-1.9-1-3.4.5-3 3-5 5.3-6.8 1.4-.7 2-.7 3.6-.3" style="fill:#6b6e72;stroke-width:.397077"/><path d="M114.4 151.8h17.9l.4 1.6c-.4.4-.4.4-1.2.4h-17.9l-.4-1.5c.4-.4.4-.4 1.2-.5" style="fill:#d0d0d0;stroke-width:.397077"/><path d="M46.1 62c1.5 1 2 1.4 2.4 3 0 1.7-.4 2.3-1.6 3.4q-1.5.8-3.1.4c-1.5-1-2-1.6-2.3-3.3.3-1.4.3-1.4 1.3-2.6 2-1.2 2-1.2 3.3-.8" style="fill:#6f7275;stroke-width:.397077"/><path d="M58 62.5c1 .8 1 .8 1.6 2 0 1.7 0 2.4-1.2 3.7-1.4.8-2 1-3.5.6a6 6 0 0 1-2-2.4c0-1.7.1-2.4 1.2-3.7 1.6-.8 2.4-.7 4-.2" style="fill:#6a6e72;stroke-width:.397077"/><path d="M68.4 62.3c.8.2.8.2 1.7.8a5 5 0 0 1 .7 4.1 5 5 0 0 1-3.2 1.8c-1.6-.3-2.2-.9-3.2-2.2-.3-1.5-.1-2.2.6-3.5 1.2-1 1.8-1.1 3.4-1" style="fill:#696d70;stroke-width:.397077"/><path d="M45 160.2h25.4l.4 1.1H44.9Z" style="fill:#c7c7c8;stroke-width:.397077"/><path d="M157 140.3c1.4.6 1.4.6 2 1.6.4 1 1.1 1.2 2.3 1.6-2.9 2.4-2.9 2.4-4.4 2.4l-.8.4-1.2-.8-2.7-.4-.4-1.6q1.4-1.3 3.5-1.6c1-.4 1-.4 1.6-1.6" style="fill:#cacacb;stroke-width:.397077"/><path d="m78 35 2.7 1.7-.4.6c-.7 1.6-.6 3.3-.7 5-.1 1.1-.1 1.1-.9 2h-1.2l-.2-.9-.1-1.1-.2-1c-.2-1.1-.2-1.1-1-2.3L77 38l-1.2-.4z" style="fill:#d2d2d3;stroke-width:.397077"/><path d="m157 88.7.7.1c1.1.3 1.1.3 2 .3 1.6.1 2.2.3 3.6 1.4l.8 1c-.4.8-.4.8-1.2 1.6l.4.7q-1.3-.5-2.4-1.5c-1.4 0-1.4 0-2.8.4a7 7 0 0 1-1.2-4" style="fill:#5d6164;stroke-width:.397077"/><path d="M57.3 62.5c1.2.5 1.5.8 2.3 2 0 1.4 0 1.4-.4 2.7l-1.1.8-3.2-1.6c.1-1.9 1-2.7 2.4-4" style="fill:#6e7275;stroke-width:.397077"/><path d="m119.2 79.2.5 1c1 1.3 1.8 1.4 3.5 1.7 0 1.6 0 1.6-.4 2-1.4.2-2 .1-3-.7l-1.1-.9-1-.8-.9-.8c.5-1.5.8-1.5 2.4-1.5" style="fill:#9ea0a1;stroke-width:.397077"/><path d="m45 62.9-.4.8c-.5 1.3-.5 2 0 3.1l1.1.8.4 1.2c-1.5.2-2.2.1-3.5-.8-1-1.5-1.1-2.2-.8-4 .8-1.3 1.6-1.2 3.1-1.1" style="fill:#64686b;stroke-width:.397077"/><path d="m121.6 58.9.4 1.2a8 8 0 0 1-2.8 3.2c-1.4.1-2.1.1-3.3-.6l-.7-.6c.3-1.2.4-1.6 1.2-2.4l.8 1.2c1 .3 1 .3 2 0z" style="fill:#5a5e61;stroke-width:.397077"/><path d="M157.7 141.5c1.2.4 1.5.7 2.4 1.6l1.2.8c-2.2 1.6-2.2 1.6-4 1.6v-.8l-2-.8c.6-1 1-1.1 2-1.6z" style="fill:#f8f8f9;stroke-width:.397077"/><path d="m78 35 2.7 1.7a9 9 0 0 1-2.4 3.1l-1.2-1.1v-.8l-1.2-.4z" style="fill:#f8f9f8;stroke-width:.397077"/><path d="M124 152.2h8.7v1.2h-9.1z" style="fill:#c2c2c3;stroke-width:.397077"/><path d="m144.6 76.8 1.2.4c-.2 2.2-.2 2.2-1 3.1l-.6.4-1.6-.8c.2-1.5.9-2.1 2-3.1" style="fill:#909394;stroke-width:.397077"/><path d="M95.4 112.1h4.3v1.6h-4.3z" style="fill:#989b9c;stroke-width:.397077"/><path d="M53.3 112.1h4l.4 1.6h-4.4z" style="fill:#8e9293;stroke-width:.397077"/><path d="m112.8 69.6 1.6.8v2.8h-1.6c-.7-1.2-.7-1.2-.6-2.2.3-1 .3-1 .6-1.4" style="fill:#8a8d8f;stroke-width:.397077"/><path d="M106.1 112.1h4v1.6h-4z" style="fill:#9ea1a3;stroke-width:.397077"/><path d="M64 112.1h4v1.6h-4z" style="fill:#989b9c;stroke-width:.397077"/><path d="M43 112.1h4v1.6h-4z" style="fill:#a9abad;stroke-width:.397077"/><path d="M121.8 81.5h1l.8 1.6c-.8.8-.8.8-1.9.9l-1-.1-.7-1.6c.8-.8.8-.8 1.8-.8" style="fill:#7a7d80;stroke-width:.397077"/><path d="M85 112.1h4l-.4 1.6h-3.5z" style="fill:#a4a6a7;stroke-width:.397077"/><path d="M74.3 112.1h4v1.6h-3.6z" style="fill:#a4a7a8;stroke-width:.397077"/><path d="m55.7 64 1.6.5.4 2c-.4.3-.4.3-1.5.3h-1l-.3-2z" style="fill:#d9dbdb;stroke-width:.397077"/><path d="M116.8 112.1h3.6v1.6h-3.6z" style="fill:#999c9e;stroke-width:.397077"/><path d="m44.6 64 1.5.5.4 2-2.3.3-.4-2z" style="fill:#d0d3d3;stroke-width:.397077"/><path d="M77.5 30.7h1.6v4l-1.2.4c-.5-1-.4-1.6-.4-2.6z" style="fill:#c5c6c6;stroke-width:.397077"/><path d="M127.1 112.1h3.6v1.6h-3.6z" style="fill:#aaacad;stroke-width:.397077"/><path d="M64.8 66.4c1.2.4 1.2.4 1.6 1.2l1.2.4v-.8l2-.4v1.6q-1.5.7-3.2.4c-1-.7-1-.7-1.6-1.6z" style="fill:#616569;stroke-width:.397077"/><path d="m67.2 64 1.6.5.4 1.5-.8.8c-.9-.1-.9-.1-1.6-.4-.3-.7-.3-.7-.4-1.5z" style="fill:#e2e3e3;stroke-width:.397077"/><path d="m121.6 58.9.4 1.2a8 8 0 0 1-2.8 3.2h-2.4v-.4l1.1-.4q1.5-.4 2.9-1.2v-.8l-.8-.4z" style="fill:#707375;stroke-width:.397077"/><path d="m138.7 81.1 1.5.4v1.6c-1.4.5-1.4.5-2.3 0 .3-1.5.3-1.5.8-2" style="fill:#8d9193;stroke-width:.397077"/><path d="M79.1 31.5h.4l.2 2.4c.2.9.2.9 1 2l-1.2.4-1.2-1.6h.8z" style="fill:#d5d5d6;stroke-width:.397077"/><path d="M76 35.9v.8l.7.4-.4.8h-.8l-.4-.8-2.8-.4v-.4z" style="fill:#d4d4d5;stroke-width:.397077"/></svg>