<svg xmlns="http://www.w3.org/2000/svg" width="200" height="200" style="display:block"><path d="m121.5 24 1.3.5a30 30 0 0 1 16.6 15.8 14 14 0 0 1 1.2 5.3l1 .3q2.3.8 4.4 2l.9.4 2.5 1.3.7.4a71 71 0 0 1 12 8c3.8 3.2 8.2 8 8.9 13.1.3 4.2.2 7.3-2.4 10.8l-.6.8c-5 6-14.9 7.7-22.2 8.4h-8.4l4.3 22 .3 1.1 2.6 13.6.7 3.7.4 2 4.7 23 .9 4.4a5 5 0 0 1-.3 2.4l-2 .4-.3-1.4-1.4-7.2q-1-5.4-2.3-10.8-1-3.9-1.5-7.8-1-6.4-2.3-12.7l-.9-4.4-2.9-14.4-3.9-19-.2-1.2-1.4-7.7-1 .3-1 .1-.8-.8c.4-1.2.4-1.2 1-1.6l1-.4 2-1.2c.1-1.5.2-2.4-.7-3.7a22 22 0 0 0-3.5-3l-.7-.5c-5.3-3.6-11.6-6-17.8-7.3l-2.5-.5c-3.6-1-7-1-10.6-1h-1.5c-4 0-8.4 0-11.4 2.9-.3 1.6-.1 2.5.6 4a27 27 0 0 0 12.8 7.9l2.6 1q3 1 6 1.7l1.1.2a41 41 0 0 0 10.1 1.1h9.5v.4c-2.3.6-4.8.5-7.2.6h-2c-1 .3-1.3.7-2 1.4q-3.6.2-7-.7l-1-.2c-8.7-1.8-19-4.4-24.7-11.7-1.3-1.9-2-3.4-1.6-5.7.8-2.1 2.4-3 4.3-4A28 28 0 0 1 96.6 55h1a60 60 0 0 1 15.5 2c8.1 2 16.6 5.8 22 12.3q.8 2.2.4 4.6l-.8 1.2a22 22 0 0 0 .7 6.8l.3 1.5.3 1.5.6 3.8a46 46 0 0 0 18.6-3.4c1-.2 1-.2 2.4 0 1.7.2 2.7-.3 4.2-1.2l.7-.4a13 13 0 0 0 6-7.4c.5-4.1-.3-7.3-2.9-10.6l-2-2.5c-12.5-14.6-35.9-21-54-24.8l-1.8-.4c-5.2-1-10.6-1.4-15.8-2l1.2-.8v-.8c5.9-.8 11.4.3 17.1 1.5l1 .2c9 2 18.7 4 27 8.3a34 34 0 0 0-5.2-9.6l-.8-.9a30 30 0 0 0-19-8.8l-5 .2h-.8q-5 .3-9.3 2.4c-1 .4-1 .4-2 0-.6-.4-.6-.4-1-1.6a34 34 0 0 1 26.3-2" style="fill:#6d7174;stroke-width:.398907"/><path d="M49.3 49.2h.4v.9a21 21 0 0 0 6.4 12.7l2 .8a7 7 0 0 1 2.8 2c4.2 4.5 12.6 10 18.7 11.1l.3-.8 1.5-3 .4-1c.6-.8.6-.8 1.5-1l.7-.2.8 1.6c-.3 1-.3 1-1 2l-.6 1.2-.8 1.3-.8 1.4-5.9 10.1q-2.4 4-4.6 8.1l-11.5 20-9.8 17-7.4 12.7-7.8 13.7-.7 1.3-.6 1.2c-.8 1-.8 1-1.8 1.3h-1c-.4-1.3-.4-1.5.3-2.8l2-3.5.7-1 3.4-6 11-19.2 16.3-28.3 5.2-9.2 3.5-6 .7-1.1 4.4-7.8-1-.1a16 16 0 0 1-3.9-1.6l-.8-.4c-8.9-4.6-20.2-11-24-20.7a11 11 0 0 1-.2-4h.7z" style="fill:#6b6f72;stroke-width:.398907"/><path d="M20.6 165.6h119.6l.4 2c-.4.5-.4.5-1.2.6H19.8l-.8-1.7c.8-.8.8-.8 1.7-.9" style="fill:#6c7073;stroke-width:.398907"/><path d="M77.7 124.5q1.8.6 3.7 1l.9.4q3.2 1 6.6 1.6c3.5.8 7 1.8 9.2 4.7a8 8 0 0 1 .6 5.2l-.8 2.1q-1 2.8-1.6 5.6-.5 1.8-1.2 3.4l-.3 1.2c-.7 2-1.2 3-3 4-1.4.4-1.4.4-2.6.4v2.4l-1.6.4-.4-.7-.6-.9-.5-.8c-1-1.5-2.3-1.8-4-2.2l-1.4-.4-1.5-.3q-4.7-1.2-9.3-2.7-2-.7-4.2-1.2c-2.7-.6-4.3-1.3-5.8-3.6-.8-3.5.2-6.5 1-9.9l.5-1.3c2-7.8 2-7.8 4.8-10 3.8-1.3 8 .5 11.5 1.6m-11.1 1.2q-1.6 2.6-2.2 5.6l-.8 3.4-1.3 3.9a9 9 0 0 0-.2 4c1 1.8 2.1 2.3 4.1 2.9l1 .2 1 .3 5.7 1.6 8 2.2.8.2 2.2.6c1.1.3 1.1.3 2.3 1.1 1.6.2 2.5.2 3.8-.7a6 6 0 0 0 1.8-3.2l.4-1.4 1.2-4.1.4-1.4 1-3c.6-1.4.8-2.3.6-3.7-1.6-2.4-3-3-5.6-3.6l-1-.3-5.6-1.5-3.4-1-5.1-1.4-1-.3-1.6-.5c-2.3-.7-4.4-1.2-6.6.1" style="fill:#6b6f72;stroke-width:.398907"/><path d="m108 96.6 9.5 1 1 .1 1.8.2c2.5.2 4 1.2 5.7 3 1 2 .8 3.6.6 5.7v1.2l-.3 3.6-.1 1.1c-.5 6.5-.5 6.5-3.4 9-3.3 2.4-8.6 1-12.5.6l-2.5-.2c-4-.4-4-.4-5.9-.9l-4.2-.1c-2.5-.1-4-1-5.8-2.7-1.2-1.4-1.2-2.6-1.2-4.4v-4.4c0-9.3 0-9.3 2-11.5 4.1-3.6 10.3-1.9 15.3-1.3M94.8 99c-1.2 1.8-1.2 3.3-1.4 5.4v1.2l-.2 3.4v1c-.4 4-.4 4 1.2 7.4 1.2.8 1.5 1 2.9 1l1 .1 1.2.1 12.8 1.2c4.8.7 4.8.7 9.4-.3 1.7-1.6 1.9-3.2 2-5.4l.1-1.5.1-1.5.1-1.5.3-4.2.2-1.4c-.2-1.4-.3-1.7-1.4-2.7-1.7-1.3-3.4-1.5-5.6-1.6h-1.2l-7.2-.7-2.3-.1q-2.6-.2-5.3-.7l-2.7-.1h-1.5c-1.4 0-1.4 0-2.5.9" style="fill:#676b6f;stroke-width:.398907"/><path d="M43.6 86.6q5.3-.3 9.4 3.2c1.9 2.1 3.6 4.6 3.5 7.5l-.2 2.7-.6 5.4-.4-1.2h-.8c-.9-1.2-.9-1.6-.9-3V98c0-2.8-.7-4.4-2.7-6.4a11 11 0 0 0-7.7-2.1 9 9 0 0 0-5.9 2.9 13 13 0 0 0-2.4 6.4c-1.2 1.2-2.8 1-4.5 1.2-2.3.2-3.5 1-5 2.7q-1 2.8-.4 5.6c.8 1.2 1.3 1.6 2.7 1.8H30l4.3.1h9.4l9.3.1c-.4 2-.4 2-.8 2.4l-2.4.1h-4.2l-14.6.2c-5 0-5 0-6.9-1.4l-1-1.2-.8-1q-1.2-3.1-.1-6.3a14 14 0 0 1 6.4-6h4V96c.6-3.2 3-5.7 5.5-7.8 1.8-1.2 3.5-1.3 5.6-1.5" style="fill:#c2c2c3;stroke-width:.398907"/><path d="M161.8 117.4a15 15 0 0 1 5.2 6q.5 1.3 1.6 2.4c1.1.2 1.1.2 2.4.1a10 10 0 0 1 10 11 8 8 0 0 1-3.7 4.8c-1.3.4-2.2.5-3.6.5H151v-2.5h1l22.2-.2c1.3-.2 2-.5 3.1-1.3a8 8 0 0 0 0-5.7q-1.8-2.6-4.8-3.5h-2.7c-2.6-.3-2.6-.3-3.6-1l-1.2-2.2-.4-.8-.8-2c-.6-1.4-1-1.8-2.4-2.4l-1.1-.8c-2.4-1.4-5.5-1.1-8-.8a12 12 0 0 0-4.9 3.2l-1.6-.8c.3-1.4.7-2 1.8-2.8 4.4-3.1 9.3-4 14.2-1.2" style="fill:#c3c4c4;stroke-width:.398907"/><path d="M60.2 175.6H138l.3 1.6c-.6.8-1.6.5-2.5.5H115l-57-.1-.3-1.6c.7-.6 1.6-.4 2.5-.4" style="fill:#cfcfcf;stroke-width:.398907"/><path d="m87.2 32.8.4.8-1.2 1.2 3.6.4v.4h-1.2c-19.2 0-19.2 0-35.9 8.6-2.3 2.5-2.7 4.9-2.8 8.2h-1.2c-.7.5-.7.5-1.2 1.2-.3-4.3 0-7.2 2.8-10.5 4.9-5.4 11.5-7.2 18.3-8.7l1.2-.2c4-1 8.2-1 12.4-1.2h1.4z" style="fill:#6d7174;stroke-width:.398907"/><path d="m146.6 58.8 4 2.4 4.8 3.2.4-2 2-.4c.8.8.8.8.8 1.8v1l-1.6.8c2.1 2.4 2.1 2.4 4.4 4.7l.4-1.6 2 .4.4 2.4-1.6.8.4.8q.7 2 .4 4.1V80h-.4l-.4-3.6h-.8l-.4-.9c-3.7-7.9-10.6-12-18-15.8v-.8c1.4-.5 1.8-.4 3.2 0" style="fill:#959698;stroke-width:.398907"/><path d="m149.4 162.9 2 .4.4 2.4H173l-1.5 1.2-.4.4 2 .4v.4h-21.8c-1 0-1 0-1.8-.8v-3.5z" style="fill:#797c7f;stroke-width:.398907"/><path d="m50.5 26 1.2.5c.3.8.3.8.4 1.7.2 1.5.2 1.5 1.2 2.6l1.8.5 1 .2.8.1-.8 1.6c-.9.4-.9.4-1.9.5-1.2.1-1.2.1-2.1.7l-.4 2.8H50l-.2-1.3c0-1.5 0-1.5-1-2.3l-2.4-.2c-.8-.2-.8-.2-1.6-1.4 1-.9 1.4-1 2.6-1.2l1-.2.8-.2.1-.8.2-1.1.3-1.1c.2-1 .2-1 .6-1.3" style="fill:#8a8d8f;stroke-width:.398907"/><path d="M67.6 40.8c2 .3 2 .3 2.4.8v2l.8-.1a25 25 0 0 1 6.4-.7l-.4 1.2-2 .4v.4l-.6.1C68.4 46 68.4 46 63 47.7c-1 .3-1 .3-2.5.3.6-1.7 1.5-2.1 3-2.9a14 14 0 0 1 4.1-.7l-.4-.7c-.5-1-.4-1.4 0-2.5z" style="fill:#929494;stroke-width:.398907"/><path d="M105.1 45.2a79 79 0 0 1 13.3 2.4c4.5 1 4.5 1 5.9 2l-1.2.4v.8l1.2.4c-.8.4-.8.4-1.8.2l-1.2-.4q-3.6-1.2-7.2-2l-3.4-1q-2.4-.8-5-1l-1-.2-.4-.8h.8z" style="fill:#a4a5a6;stroke-width:.398907"/><path d="M151 32.4h2.8l.4.8.8.4c.8.4.8.4 1.2 1.2.7 0 .7 0 1.6-.4l.4-1c.8-1 .8-1 1.7-1h3l.4 1.6c-.8.8-2.3.8-3.4 1-1 .2-1 .2-1.8 1l-.3 2-.3 1.2-.1.8h-1.6l-.8-4.8-4.8-.8-.4-1.6c.4-.4.4-.4 1.2-.4" style="fill:#cbcbcc;stroke-width:.398907"/><path d="m53.3 109.4.4.8H60l-1.2 2.8H26.5v-.4l25.6-.4z" style="fill:#cecfd0;stroke-width:.398907"/><path d="M57.7 44.8c1 0 1 0 2 .4l.8 1.2.8.4-.8 1.2.8.4-1 .6-1.4 1-.7.5c-2.1 1.8-2.3 4-2.5 6.7h-.4l-.4-2-.8 2h-.4c-.3-2.9.5-4.8 2-7.2l1.2-1.2h.8V48h-.8v-2.4z" style="fill:#959798;stroke-width:.398907"/><path d="m59.7 78.7 1.2 1.2c.8.3.8.3 1.6.3l1.5.1.4 1.6c-.8.8-2.5.7-3.5.8l-.8 3.6-2-.4-.2-1.4c0-1.3 0-1.3-.6-1.8l-3.2-.4-.4-1.6c.7-.7 1.7-.5 2.6-.6l1.2-.1h1v2l1.6.3z" style="fill:#888b8d;stroke-width:.398907"/><path d="m131 51.6.5.8 2.5.5q2.8.9 5.4 2.3l1.5.6q2.3 1 4.5 2.2c-1 1-1.3 1.1-2.8 1.2q-1.8-.7-3.6-1.7-4.5-2.4-9.5-4l1.2-.7z" style="fill:#a4a5a6;stroke-width:.398907"/><path d="m155.8 26.5 2 .4.4 4.7 2.8.4v.4h-2l-.1.8a3 3 0 0 1-1.5 2c-.8 0-.8 0-1.6-.4l-.4-.8-1.6-.8v-.8l-1.6-.4 2.8-.4v-1l.2-1.3v-1.4c.2-1 .2-1 .6-1.4" style="fill:#dcdcdc;stroke-width:.398907"/><path d="m158.2 96.3 1.6.4.6 2.6.6 2.2h-2.4v1.5l.6.6c.6.6.6.6.7 1.6v1.8l-.1.8-1.6-.4-.8-3.6-3.6-.8-.4-1.5.8-.2 1-.1 1-.2c.8-.3.8-.3 1.3-1q.5-1.8.7-3.7" style="fill:#828688;stroke-width:.398907"/><path d="M69.6 137.4q3.4-.2 6.7 1l1 .2q2 .5 3.9 1.5l1.8.4q1.4.3 2.6.8v1.2c-2.2.2-2.2.2-3-.3q-2.1-.9-4.4-1.2-4.4-.9-8.6-2.4z" style="fill:#c8c8c9;stroke-width:.398907"/><path d="M102.3 102.6c1 .5 1 .5 1.6 1.2.3 1.5.2 2.2-.6 3.4-1.4.9-2.2.9-3.8.6-1-1-1.5-1.6-1.7-3 .2-1 .2-1 .8-1.7a6 6 0 0 1 3.7-.5" style="fill:#646669;stroke-width:.398907"/><path d="M72.3 129.8c2 .5 2 .5 2.5 1.6q.5 1.6-.4 3a5 5 0 0 1-3.2 1c-1.2-1-1.8-1.6-2.2-3 .5-2 1.3-2.7 3.3-2.6" style="fill:#64686b;stroke-width:.398907"/><path d="m90.8 31.6-.8 2h3.6c1.2 0 1.2 0 2.4.8h-2.8v.8l1.6.4-16.4-.4v-.4l8-.4-6-.4v-.4h7.2v-.8c1.2-1 1.5-1.2 3.2-1.2" style="fill:#5f6366;stroke-width:.398907"/><path d="m130.3 76.3-.8.4V78q-4.3 1.1-8.7.9h-1.3q-3 0-6-.5V78l3.2-.4v-.4h.7l3.3-.1h1q3.2-.2 6.2-1 1.2-.2 2.4.3" style="fill:#676b6e;stroke-width:.398907"/><path d="M95 40.4h1l.4 2-.4.4 2.8 1.2-.8.4v.8c-7 .1-7 .1-8.7-1.2-.5-.8-.5-.8-.5-1.2h4.8v-2c.4-.4.4-.4 1.4-.4" style="fill:#878a8c;stroke-width:.398907"/><path d="M105.5 41.6c1.5.3 1.5.3 2 .8l-.4 2.8.8.4h-1c-1.4-.1-1.4-.1-2.6.8l-2.2-.1-1.3-.1-1.3-.2-1-.1-2.5-.3v-.4h2v-.8q2.4-.6 4.9 0l1.3.2 1 .2v-1.3c0-1.5 0-1.5.3-1.9" style="fill:#8e8f91;stroke-width:.398907"/><path d="m130.3 48.8 2 .4.4 2-1.6.4-.4 1.6a9 9 0 0 1-4.7-1l-1.1-.5a7 7 0 0 1-2.2-1.7v-.4q3.8.4 7.2 2v-1.2c0-1.2 0-1.2.4-1.6" style="fill:#8d8f91;stroke-width:.398907"/><path d="M74.8 131.8q6.9 1 13.2 4v1.2a39 39 0 0 1-8-2l-1.4-.4-1.3-.4-1.2-.4c-.9-.4-.9-.4-1.2-1.3z" style="fill:#c4c4c5;stroke-width:.398907"/><path d="M122.3 141.7c.8.4.8.4 1.3 1.4.7 1.1 1 1.4 2.3 1.8l.8.8-.4.4-.3 1.9v1l-.1.7-2-.4v-.7c-.1-2-.1-2-1.3-3.6l-3.9-1.3v-1.2l2.5-.2c.7 0 .7 0 1-.6" style="fill:#c5c5c5;stroke-width:.398907"/><path d="M103.5 103.4c9.6.8 9.6.8 13.2 1.6v1.2c-9.5.3-9.5.3-12.4-1.2l-.4.8z" style="fill:#c2c2c3;stroke-width:.398907"/><path d="m124.3 137 1.6.4v.7l.1 1 .2 1c0 .8 0 .8.5 1.6h-.8l1.2 1.2a4 4 0 0 1-2 2.4l-2.4-2.8.8-1.6.2-1.8c.1-1.7.1-1.7.6-2.1" style="fill:#dbdcdd;stroke-width:.398907"/><path d="m79.6 39.2 2 .4c.3 1.2.5 1.8 0 3l-.4.6 1.6.4v.8H74V44h2.8l.4-1.2 2.4-.4-.8-.8c.2-1.8.2-1.8.8-2.4" style="fill:#7a7c7e;stroke-width:.398907"/><path d="M142.6 175.6H153v1.6h-10.4z" style="fill:#cfd0d0;stroke-width:.398907"/><path d="m94.4 26.5 1.6.8.4 1.2-.8.4-1.1.7-1 .6-2 1.3q-1.7 1.2-4 1c1.9-2.6 4.4-4.2 6.9-6" style="fill:#6a6e71;stroke-width:.398907"/><path d="M100 109.8q5.8 0 11.5.8v1.2q-5.6.1-11.2-.4z" style="fill:#bebfbf;stroke-width:.398907"/><path d="m162.2 76 .8.3c.2 4.4.2 4.4-1.2 6.4l-2.8 2.4v.8l-1.6-.4v-1.2l1.7-1.4c2-1.8 2.4-4.1 2.7-6.6z" style="fill:#9a9c9d;stroke-width:.398907"/><path d="M158.6 101q3 0 6 .5v1.5l-.8.2-1 .2-.9.2c-1 .2-1 .2-2.1 1l-.4-1.2-1.6-.8z" style="fill:#b0b2b4;stroke-width:.398907"/><path d="m55.3 54.8.1.9a21 21 0 0 0 3.5 7.9c-1.2.4-1.2.4-2.4 0-1.7-2.6-2.9-5-2.4-8 .8-.8.8-.8 1.2-.8" style="fill:#919395;stroke-width:.398907"/><path d="M54 101h.5v3.2h.8a9 9 0 0 1-2.8 6.4h-1.2l.3-.8q1.7-4.2 2.5-8.7" style="fill:#a5a7a7;stroke-width:.398907"/><path d="M81.2 42.8h4.7c3.6 0 3.6 0 4.9.4l.8 1.2h-7.8c-1 0-1 0-2.2-.8z" style="fill:#8e9090;stroke-width:.398907"/><path d="M169 166h4.3v1.7h-22.7v-.4l20.4-.4-2-.4z" style="fill:#606468;stroke-width:.398907"/><path d="m125.9 141.7 1 .2 4.2.6-.4 2-1.5.2q-1.7.2-3.3.6l1.2-2.4-1.2-.4z" style="fill:#c3c3c4;stroke-width:.398907"/><path d="m58.5 76 1.6.3v6l-2-.4.4-2-.8-.4c.3-3.1.3-3.1.8-3.6" style="fill:#b0b2b3;stroke-width:.398907"/></svg>